<?xml version="1.0" standalone="no"?>
<!DOCTYPE svg PUBLIC "-//W3C//DTD SVG 1.1//EN" "http://www.w3.org/Graphics/SVG/1.1/DTD/svg11.dtd" >
<!--
2013-9-30: Created.
-->
<svg>
<metadata>
Created by iconfont
</metadata>
<defs>

<font id="blockchain-" horiz-adv-x="1024" >
  <font-face
    font-family="blockchain-"
    font-weight="500"
    font-stretch="normal"
    units-per-em="1024"
    ascent="896"
    descent="-128"
  />
    <missing-glyph />
    
    <glyph glyph-name="application" unicode="&#58899;" d="M151.72 744.28m0.5 0l279.01 0q0.5 0 0.5-0.5l0-279.01q0-0.5-0.5-0.5l-279.01 0q-0.5 0-0.5 0.5l0 279.01q0 0.5 0.5 0.5ZM420.77 431.39H162.68a43.88 43.88 0 0 0-43.83 43.83v258.1a43.88 43.88 0 0 0 43.83 43.83h258.09a43.89 43.89 0 0 0 43.84-43.83v-258.1a43.89 43.89 0 0 0-43.84-43.83zM184.6 497.14h214.26V711.4H184.6zM420.77-9.15H162.68a43.88 43.88 0 0 0-43.83 43.83v258.1a43.88 43.88 0 0 0 43.83 43.83h258.09a43.89 43.89 0 0 0 43.84-43.83v-258.1a43.89 43.89 0 0 0-43.84-43.83zM184.6 56.6h214.26V270.86H184.6zM861.32-9.15H603.23a43.89 43.89 0 0 0-43.84 43.83v258.1a43.89 43.89 0 0 0 43.84 43.83h258.09a43.88 43.88 0 0 0 43.83-43.83v-258.1a43.88 43.88 0 0 0-43.83-43.83zM625.14 56.6H839.4V270.86H625.14zM861.32 431.39H603.23a43.89 43.89 0 0 0-43.84 43.83v258.1a43.89 43.89 0 0 0 43.84 43.83h258.09a43.88 43.88 0 0 0 43.83-43.83v-258.1a43.88 43.88 0 0 0-43.83-43.83z m-236.18 65.75H839.4V711.4H625.14z"  horiz-adv-x="1024" />

    
    <glyph glyph-name="application2" unicode="&#58900;" d="M516.89 419.88l322.65 186.28a9.77 9.77 0 0 1 0 16.93L516.89 809.37a9.77 9.77 0 0 1-9.78 0L184.46 623.09a9.77 9.77 0 0 1 0-16.93l322.66-186.28a9.75 9.75 0 0 1 9.77 0zM553.42 339.68v-372.57a9.77 9.77 0 0 1 14.66-8.46l322.65 186.28a9.78 9.78 0 0 1 4.88 8.47V525.95a9.77 9.77 0 0 1-14.61 8.47L558.3 348.15a9.79 9.79 0 0 1-4.88-8.47zM465.71 348.15L143.05 534.42a9.78 9.78 0 0 1-14.66-8.47V153.4a9.78 9.78 0 0 1 4.88-8.47l322.66-186.29a9.78 9.78 0 0 1 14.67 8.47V339.68a9.8 9.8 0 0 1-4.89 8.47z"  horiz-adv-x="1024" />

    
    <glyph glyph-name="asymmetry" unicode="&#58901;" d="M74.35 767.64m1 0l417.57 0q1 0 1-1l0-417.57q0-1-1-1l-417.57 0q-1 0-1 1l0 417.57q0 1 1 1ZM691.58 445.62L435.37 1.86a1 1 0 0 1 0.87-1.5h512.41a1 1 0 0 1 0.87 1.5L693.31 445.62a1 1 0 0 1-1.73 0z"  horiz-adv-x="1024" />

    
    <glyph glyph-name="data" unicode="&#58902;" d="M104.4 773.3v-619.15h815.2V773.3z m749.71-543.94H169.89V698.1h684.22zM331.24 45.2h361.53v-50.5H331.24zM462.59 138.02h98.82v-74.43h-98.82zM302.36 332.91a31.88 31.88 0 0 0-19.89 56.81L435 511.25a31.81 31.81 0 0 0 35 3.16l99.92-53.72 129.62 124.93a31.88 31.88 0 1 0 44.25-45.91L597.33 398.65a31.88 31.88 0 0 0-37.22-5.13l-101.87 54.75-136-108.41a31.6 31.6 0 0 0-19.88-6.95z"  horiz-adv-x="1024" />

    
    <glyph glyph-name="certificate" unicode="&#58903;" d="M810.73-5.12L527.58 105.65a42.75 42.75 0 0 1-31.16 0L213.27-5.12a21.39 21.39 0 0 0-29.17 19.91V603.71a21.91 21.91 0 0 0 21.9 21.92h612a21.91 21.91 0 0 0 21.92-21.92v-588.92a21.39 21.39 0 0 0-29.19-19.91zM267.2 525.72m0.99 0l487.61 0q0.99 0 0.99-0.99l0-62.16q0-0.99-0.99-0.99l-487.61 0q-0.99 0-0.99 0.99l0 62.16q0 0.99 0.99 0.99ZM267.2 395.25m0.99 0l487.61 0q0.99 0 0.99-0.99l0-62.16q0-0.99-0.99-0.99l-487.61 0q-0.99 0-0.99 0.99l0 62.16q0 0.99 0.99 0.99ZM267.2 264.79m0.99 0l320.83 0q0.99 0 0.99-0.99l0-62.16q0-0.99-0.99-0.99l-320.83 0q-0.99 0-0.99 0.99l0 62.16q0 0.99 0.99 0.99ZM184.1 774.61m1 0l653.8 0q1 0 1-1l0-72.47q0-1-1-1l-653.8 0q-1 0-1 1l0 72.47q0 1 1 1Z"  horiz-adv-x="1024" />

    
    <glyph glyph-name="edit" unicode="&#58904;" d="M832.3 384a106.5 106.5 0 0 0 68.58 99.39 398.82 398.82 0 0 1-43.58 105.29A106.36 106.36 0 0 0 716.77 729.3a400.66 400.66 0 0 1-105.38 43.58c-15.45-40-54-68.58-99.39-68.58a106.48 106.48 0 0 0-99.39 68.58 398.82 398.82 0 0 1-105.29-43.58 106.36 106.36 0 0 0-140.54-140.62 396.35 396.35 0 0 1-43.66-105.29c40-15.45 68.58-54 68.58-99.39a106.48 106.48 0 0 0-68.58-99.39 398.82 398.82 0 0 1 43.58-105.29A106.36 106.36 0 0 0 307.23 38.7a400.66 400.66 0 0 1 105.38-43.58c15.45 40 54 68.58 99.39 68.58a106.5 106.5 0 0 0 99.39-68.58 398.82 398.82 0 0 1 105.29 43.58 106.36 106.36 0 0 0 140.53 140.62 396 396 0 0 1 43.67 105.29A106.48 106.48 0 0 0 832.3 384zM512 219.35c-90.89 0-164.65 73.76-164.65 164.65S421.11 548.65 512 548.65 676.65 474.89 676.65 384 602.89 219.35 512 219.35zM512 384m-90.84 0a90.84 90.84 0 1 1 181.68 0 90.84 90.84 0 1 1-181.68 0Z"  horiz-adv-x="1024" />

    
    <glyph glyph-name="delete" unicode="&#58905;" d="M227.1 561.9v-569.82h569.81V561.9z m147.06-482.16h-72.24V474.23h72.24z m116 0H417.9V474.23h72.23z m116 0h-72.29V474.23h72.24z m116 0h-72.32V474.23h72.24zM183.26 706.29h657.48v-87.66H183.26zM360.41 775.92v-87.66h303.18v87.66z m213.92-69.63H449.68v31.62h124.65z"  horiz-adv-x="1024" />

    
    <glyph glyph-name="chain" unicode="&#58906;" d="M122.82 773.18m1 0l326.74 0q1 0 1-1l0-326.74q0-1-1-1l-326.74 0q-1 0-1 1l0 326.74q0 1 1 1ZM572.43 323.57m1 0l326.74 0q1 0 1-1l0-326.74q0-1-1-1l-326.74 0q-1 0-1 1l0 326.74q0 1 1 1ZM506.69 116.84H374.87a130.18 130.18 0 0 0-130 130V378.68h65.75v-131.81a64.35 64.35 0 0 1 64.28-64.28h131.79zM779.16 389.32h-65.75V521.13a64.35 64.35 0 0 1-64.28 64.28H517.31v65.75h131.82a130.18 130.18 0 0 0 130-130z"  horiz-adv-x="1024" />

    
    <glyph glyph-name="record" unicode="&#58907;" d="M839.22 146.91H685.59v-153.62l153.63 153.62zM817.3 774.71H206.7a21.91 21.91 0 0 1-21.92-21.91v-737.59a21.91 21.91 0 0 1 21.92-21.92h435.06V168.83a21.91 21.91 0 0 0 21.91 21.92h175.55v562a21.92 21.92 0 0 1-21.92 21.96zM272.65 623.84h247.88v-44.63H272.65z m0-196.76h247.88v-44.62H272.65z m478.69-118.59H272.65v44.63h478.69z m0 196.76H272.65v44.62h478.69z"  horiz-adv-x="1024" />

    
    <glyph glyph-name="time" unicode="&#58908;" d="M512-35.47C280.71-35.47 92.54 152.7 92.54 384S280.71 803.47 512 803.47 931.46 615.3 931.46 384 743.29-35.47 512-35.47z m0 773.19C317 737.72 158.29 579 158.29 384S317 30.28 512 30.28 865.71 189 865.71 384 707 737.72 512 737.72zM672.38 211.6a32.77 32.77 0 0 0-21.55 8.07L479.12 369V629.19a32.87 32.87 0 1 0 65.74 0V399L694 269.28a32.87 32.87 0 0 0-21.59-57.68zM512 384m-76.62 0a76.62 76.62 0 1 1 153.24 0 76.62 76.62 0 1 1-153.24 0Z"  horiz-adv-x="1024" />

    
    <glyph glyph-name="download" unicode="&#58909;" d="M304.35 113.29h-32c-115.09 0-208.7 93.61-208.7 208.71 0 115.81 94.1 209.94 210.9 208.67q-0.3 5.61-0.3 11.18c0 127.21 103.5 230.7 230.7 230.7A229.33 229.33 0 0 0 710 647.44c139.55-8.77 250.4-125.09 250.4-266.81a266.46 266.46 0 0 0-98.5-207.25 32.88 32.88 0 1 0-41.56 51 201 201 0 0 1 74.26 156.3c0 111.16-90.43 201.59-201.59 201.59-0.77-0.05-3.56-0.23-4.35-0.22a32.86 32.86 0 0 0-30.53 20.72A164.12 164.12 0 0 1 505 706.76c-90.95 0-164.95-74-164.95-165a165.79 165.79 0 0 1 5.37-40.95 32.87 32.87 0 0 0-39.54-40.11 143.75 143.75 0 0 1-33.51 4.15C193.51 464.9 129.4 400.78 129.4 322s64.11-143 142.92-143h32a32.88 32.88 0 0 0 0-65.75zM577.47-4.51a38.35 38.35 0 0 0-38.35 38.36V420.69a38.36 38.36 0 0 0 76.71 0v-386.84a38.35 38.35 0 0 0-38.36-38.36zM577.47-4.51a38.28 38.28 0 0 0-27.12 11.23L391.18 165.89a38.36 38.36 0 0 0 54.24 54.25l132.05-132.06 132 132.06a38.36 38.36 0 0 0 54.25-54.25L604.6 6.72a38.3 38.3 0 0 0-27.13-11.23z"  horiz-adv-x="1024" />

    
    <glyph glyph-name="layer" unicode="&#58910;" d="M512 424.14L105.62 573.8 512 723.46 918.38 573.8 512 424.14zM512 391.27a33.1 33.1 0 0 0-11.36 2L94.25 542.95a32.88 32.88 0 0 0 0 61.7l406.38 149.66a32.9 32.9 0 0 0 22.73 0l406.39-149.66a32.88 32.88 0 0 0 0-61.7L523.36 393.29a33.16 33.16 0 0 0-11.36-2.02zM200.74 573.8L512 459.18 823.25 573.8 512 688.42zM512 201.46a32.88 32.88 0 0 0-11.36 2L94.25 353.14A32.88 32.88 0 0 0 117 414.85l395-145.48 395 145.48a32.88 32.88 0 1 0 22.73-61.71L523.36 203.49a32.94 32.94 0 0 0-11.36-2.03zM512 11.67a32.87 32.87 0 0 0-11.36 2L94.25 163.35A32.88 32.88 0 1 0 117 225l395-145.42L907 225a32.88 32.88 0 1 0 22.73-61.7L523.36 13.69a32.92 32.92 0 0 0-11.36-2.02z"  horiz-adv-x="1024" />

    
    <glyph glyph-name="rock" unicode="&#58911;" d="M781.14 507.14h-76.71v17.42C704.43 630.66 618.11 717 512 717s-192.44-86.34-192.44-192.44v-17.42h-76.7v17.42C242.86 673 363.59 793.7 512 793.7S781.14 673 781.14 524.56zM828.69 440.29H195.31a43.83 43.83 0 0 1-43.83-43.83v-378.33a43.83 43.83 0 0 1 43.83-43.83h633.38a43.83 43.83 0 0 1 43.83 43.83V396.46a43.83 43.83 0 0 1-43.83 43.83zM512 62a145.33 145.33 0 1 0 145.33 145.3A145.33 145.33 0 0 0 512 62zM512 118.13A21.92 21.92 0 0 0 490.08 140v97.49a21.92 21.92 0 1 0 43.84 0V140A21.92 21.92 0 0 0 512 118.13zM512 230.74m-52.93 0a52.93 52.93 0 1 1 105.86 0 52.93 52.93 0 1 1-105.86 0Z"  horiz-adv-x="1024" />

    
    <glyph glyph-name="lightningnetwork" unicode="&#58912;" d="M495.75 290.66l86.39 547.18c2.64 16.74-19.41 25.26-28.7 11.08L203.32 314.78a15.58 15.58 0 0 1 13-24.12h279.4M807.65 477.94H525.31l-86.48-547.78c-2.64-16.71 19.35-25.24 28.67-11.13l353.15 534.75a15.58 15.58 0 0 1-13 24.16z"  horiz-adv-x="1024" />

    
    <glyph glyph-name="voice" unicode="&#58913;" d="M512-6.23a38.35 38.35 0 0 0-38.35 38.36V154.94a38.35 38.35 0 0 0 76.7 0v-122.81A38.35 38.35 0 0 0 512-6.23zM685.59-6.23H338.42a38.36 38.36 0 1 0 0 76.71h347.17a38.36 38.36 0 0 0 0-76.71zM532.64 774.23h-41.28c-88.12 0-159.81-71.7-159.81-159.82v-208.52c0-88.11 71.69-159.81 159.81-159.81h41.28c88.13 0 159.81 71.7 159.81 159.81V614.41c0 88.12-71.68 159.82-159.81 159.82z m52-333.92H439.4a38.35 38.35 0 1 0 0 76.7h145.19a38.35 38.35 0 1 0 0-76.7z m0 143.37H439.4a38.36 38.36 0 0 0 0 76.71h145.19a38.36 38.36 0 1 0 0-76.71zM512 116.59c-145.58 0-269.85 99-302.18 240.76a38.36 38.36 0 1 0 74.79 17.06C308.93 267.77 402.44 193.29 512 193.29s203.07 74.48 227.4 181.12a38.35 38.35 0 0 0 74.78-17.06C781.84 215.59 657.58 116.59 512 116.59z"  horiz-adv-x="1024" />

    
    <glyph glyph-name="miner" unicode="&#58914;" d="M677.675 658.449L569.63 550.403 442.393 677.639l108.046 108.046zM133.18 114l200.45 200.41L206.4 441.65C80.58 315.83 133.18 114 133.18 114zM492.52 278.434l113.088 113.088 295.203-295.203a3.14 3.14 0 0 0 0-4.44L792.164-16.77a3.14 3.14 0 0 0-4.44 0L492.52 278.434zM123.03 187.25l168.88 168.88M527.91 592.13l108.04 108.04M152.016 496.033l235.99 235.99 235.99-235.99-235.99-235.99z"  horiz-adv-x="1024" />

    
    <glyph glyph-name="upload" unicode="&#58915;" d="M693 122.86a32.88 32.88 0 0 0 0 65.75c111.16 0 201.6 90.43 201.6 201.59S804.17 591.79 693 591.79c-0.78-0.05-3.57-0.22-4.34-0.22a32.88 32.88 0 0 0-30.54 20.71A164.12 164.12 0 0 1 505 716.33c-90.95 0-164.95-74-164.95-165a165.61 165.61 0 0 1 5.37-40.95 32.88 32.88 0 0 0-39.54-40.11 143.75 143.75 0 0 1-33.51 4.15c-78.81 0-142.93-64.12-142.93-142.94s64.12-142.92 142.93-142.92h188a32.88 32.88 0 0 0 0-65.75h-188c-115.06 0-208.67 93.61-208.67 208.67 0 115.81 94.1 209.94 210.9 208.67-0.2 3.74-0.29 7.47-0.29 11.18 0 127.21 103.49 230.7 230.69 230.7A229.34 229.34 0 0 0 710 657c139.56-8.77 250.4-125.09 250.4-266.81-0.05-147.4-119.97-267.33-267.4-267.33zM577.47-14.08a38.35 38.35 0 0 0-38.35 38.36V449.4a38.35 38.35 0 1 0 76.7 0v-425.12a38.35 38.35 0 0 0-38.35-38.36zM736.65 251.87a38.21 38.21 0 0 0-27.12 11.24l-132.06 132-132-132.05a38.35 38.35 0 0 0-54.24 54.24l159.12 159.22a38.37 38.37 0 0 0 54.24 0l159.17-159.17a38.36 38.36 0 0 0-27.11-65.48z"  horiz-adv-x="1024" />

    
    <glyph glyph-name="search" unicode="&#58916;" d="M451.22 153.47a291.31 291.31 0 1 0 206 497.28 291.31 291.31 0 0 0-206-497.28z m0 516.86a225.58 225.58 0 1 1 159.49-66.07 224.07 224.07 0 0 1-159.49 66.07zM713.25 244.74l130.63-92.49a47.84 47.84 0 0 0 6.19-72.88l-33.44-33.44a47.84 47.84 0 0 0-72.88 6.19l-92.49 130.63"  horiz-adv-x="1024" />

    
    <glyph glyph-name="wallet" unicode="&#58917;" d="M817.43 47.16H160.81a38.35 38.35 0 0 0-38.35 38.35v597a38.35 38.35 0 0 0 38.35 38.35h656.62a38.35 38.35 0 0 0 38.35-38.35v-85.93a38.35 38.35 0 1 0-76.7 0v47.55H199.16v-520.26h579.92v47.57a38.35 38.35 0 1 0 76.7 0v-85.93a38.35 38.35 0 0 0-38.35-38.35zM850.24 522.9H553.7a51.3 51.3 0 0 1-51.3-51.3v-175.2a51.3 51.3 0 0 1 51.3-51.3h296.54a51.3 51.3 0 0 1 51.3 51.3V471.6a51.3 51.3 0 0 1-51.3 51.3zM647.51 329.82a55.94 55.94 0 1 0-27.8 108.37c41.59 10 78.1-26.49 68.08-68.08a55.5 55.5 0 0 0-40.28-40.29z"  horiz-adv-x="1024" />

    
    <glyph glyph-name="style" unicode="&#58918;" d="M289.17-5.3H122.7V334.48h166.47zM122.7 773.3h498.71v-339.78H122.7zM734.83 773.3H901.3v-113.18H734.83zM734.83 546.7H901.3v-113.18H734.83zM402.59 107.88H901.3V-5.3H402.59zM402.59 334.48H901.3V221.3H402.59z"  horiz-adv-x="1024" />

    
    <glyph glyph-name="fee" unicode="&#58919;" d="M365.76 505.01m-68.45 0a68.45 68.45 0 1 1 136.9 0 68.45 68.45 0 1 1-136.9 0ZM658.23 263m-68.45 0a68.45 68.45 0 1 1 136.9 0 68.45 68.45 0 1 1-136.9 0ZM365.74 168.93a38.35 38.35 0 0 0-29.53 62.8L604 555.33a38.35 38.35 0 0 0 59.1-48.9l-267.79-323.6a38.27 38.27 0 0 0-29.57-13.9zM512-37.89C279.37-37.89 90.11 151.37 90.11 384S279.37 805.89 512 805.89 933.89 616.63 933.89 384 744.63-37.89 512-37.89z m0 767.07c-190.34 0-345.18-154.84-345.18-345.18S321.66 38.82 512 38.82 857.18 193.66 857.18 384 702.34 729.18 512 729.18z"  horiz-adv-x="1024" />

    
    <glyph glyph-name="trade" unicode="&#58920;" d="M312.77 260.76a38.36 38.36 0 0 0-27.12 65.48L454.46 495l-50.54 59.6a38.35 38.35 0 0 0 28.35 63.16L596 621.57a38.35 38.35 0 0 0 28-65.46l-90-90-0.55-0.55L339.89 272a38.23 38.23 0 0 0-27.12-11.24zM427.11 146.42A38.35 38.35 0 0 0 400 211.89l84.71 84.72 0.33 0.32L684.11 496a38.35 38.35 0 0 0 54.24-54.24L565.86 269.28l52.47-54a38.35 38.35 0 0 0-26.6-65.08L428 146.43zM512-37.89C279.37-37.89 90.11 151.37 90.11 384S279.37 805.89 512 805.89 933.89 616.63 933.89 384 744.63-37.89 512-37.89z m0 767.07c-190.34 0-345.18-154.84-345.18-345.18S321.66 38.82 512 38.82 857.18 193.66 857.18 384 702.34 729.18 512 729.18z"  horiz-adv-x="1024" />

    
    <glyph glyph-name="customerservice" unicode="&#58921;" d="M465.62 54.11h-64.2a158.64 158.64 0 0 0-150.26 107.65l-37.28 109.72 33.21 11.28L284.36 173a123.6 123.6 0 0 1 117.06-83.85h64.2zM790.84 238.76a38.35 38.35 0 0 0-38.35 38.36V436.63c0 132.6-107.88 240.48-240.49 240.48S271.51 569.23 271.51 436.63v-159.51a38.35 38.35 0 1 0-76.7 0V436.63c0 174.9 142.29 317.19 317.19 317.19s317.19-142.29 317.19-317.19v-159.51a38.35 38.35 0 0 0-38.35-38.36zM117 238.76a38.35 38.35 0 0 0-38.35 38.36v179.1a38.36 38.36 0 1 0 76.71 0v-179.1A38.35 38.35 0 0 0 117 238.76zM907 238.76a38.35 38.35 0 0 0-38.36 38.36v179.1a38.36 38.36 0 1 0 76.71 0v-179.1A38.35 38.35 0 0 0 907 238.76zM407.79 129.11m57.46 0l93.49 0q57.46 0 57.46-57.46l0-0.01q0-57.46-57.46-57.46l-93.49 0q-57.46 0-57.46 57.46l0 0.01q0 57.46 57.46 57.46Z"  horiz-adv-x="1024" />

    
    <glyph glyph-name="safe" unicode="&#58922;" d="M263.28 540.31C290.47 265.41 438 135.43 512 86.84c74 48.59 221.54 178.59 248.72 453.47C655.05 565.09 569.48 621.87 512 670.25c-57.49-48.38-143.06-105.16-248.72-129.94zM512 815.6S364.7 631.31 155.25 631.31C155.25 221.66 388.92 22 512-31.6 635.08 22 868.75 221.66 868.75 631.31 659.3 631.31 512 815.6 512 815.6z m10.83-771L512 38l-10.83 6.64c-76.12 46.63-255.85 189.73-280.82 510.52l-1.44 18.42 18.15 3.52C351 599.22 442 663.31 498.25 713.17L512 725.34l13.74-12.17c56.29-49.86 147.31-113.93 261.2-136.1l18.15-3.52-1.44-18.42c-24.97-320.79-204.71-463.87-280.82-510.52zM423.087 428.38l108.102-108.103-43.975-43.975-108.102 108.103zM653.96 443.038L487.224 276.303l-43.975 43.975 166.736 166.735z"  horiz-adv-x="1024" />

    
    <glyph glyph-name="warning" unicode="&#58923;" d="M819.76 111.1H204.24A68.08 68.08 0 0 0 150 220.28l34.11 45.08A159.38 159.38 0 0 1 216.16 361V505.22C216.16 668.34 348.87 801 512 801s295.84-132.66 295.84-295.78V361a159.38 159.38 0 0 1 32.1-95.62l34.11-45.08a68.09 68.09 0 0 0-54.29-109.2z m-6.87 62.9z m-591.32 13.81h580.86l-23.66 31.26A236.56 236.56 0 0 0 731.13 361V505.22c0 120.82-98.3 219.12-219.13 219.12S292.87 626 292.87 505.22V361a236.56 236.56 0 0 0-47.64-141.91zM648.61 266H375.4a27.4 27.4 0 1 0 0 54.79h273.21a27.4 27.4 0 0 0 0-54.79zM389.87 55.24a128.62 128.62 0 0 1 244.26 0z"  horiz-adv-x="1024" />

    
    <glyph glyph-name="mobile2" unicode="&#58924;" d="M761.43-4H262.57a31.09 31.09 0 0 0-31.09 31.1V740.88A31.09 31.09 0 0 0 262.57 772h498.86a31.09 31.09 0 0 0 31.09-31.1v-713.78A31.09 31.09 0 0 0 761.43-4z m-467.77 62.21h436.68V709.79H293.66zM588.37 639.48a22.92 22.92 0 0 0-22.92-22.92h-106.9a22.92 22.92 0 0 0-22.92 22.92 22.93 22.93 0 0 1-22.93 22.92h-64.56A21.18 21.18 0 0 1 327 641.21v-514.42a21.19 21.19 0 0 1 21.19-21.19h327.67a21.19 21.19 0 0 1 21.19 21.19V641.21a21.18 21.18 0 0 1-21.19 21.19H611.3a22.93 22.93 0 0 1-22.93-22.92z"  horiz-adv-x="1024" />

    
    <glyph glyph-name="payment" unicode="&#58925;" d="M122.47 103.88a20.73 20.73 0 0 1 20.72-20.73h737.62a20.73 20.73 0 0 1 20.72 20.73V454.23H122.47zM880.81 684.85H143.19a20.73 20.73 0 0 1-20.72-20.73v-106.24h779.06V664.12a20.73 20.73 0 0 1-20.72 20.73zM192.83 347.34h336.01v-52.47H192.83zM192.83 247.8h200.98v-52.47H192.83z"  horiz-adv-x="1024" />

    
    <glyph glyph-name="address" unicode="&#58926;" d="M512-28.65a103.83 103.83 0 0 0-86.82 46.84C370.39 101.2 290 199.82 258 238.36c-3.33 3.78-7.18 8.35-10.9 13.08l-2.92 3.44a36 36 0 0 0-4.05 5.88 333.79 333.79 0 0 0-65.24 198.78c0 185.88 151.23 337.11 337.11 337.11s337.11-151.23 337.11-337.11a333.8 333.8 0 0 0-65.29-198.86 35.48 35.48 0 0 0-4-5.8l-3.66-4.35c-3-3.81-6.83-8.39-10.78-12.91C734 199.8 653.59 101.16 598.82 18.19A103.83 103.83 0 0 0 512-28.65zM303 297.69l0.41-0.49c3.66-4.62 6.69-8.21 9.79-11.75 33.39-40.2 115.8-141.28 172.53-227.29 12-18.11 40.58-18.12 52.54 0 56.75 86 139.13 187.07 171.92 226.56 3.74 4.27 6.76 7.86 9.68 11.57l1.09 1.3c0.53 0.84 1.11 1.67 1.72 2.48a262 262 0 0 1 53.87 159.47c0 145.88-118.68 264.55-264.55 264.55S247.45 605.42 247.45 459.54a262 262 0 0 1 53.87-159.48c0.59-0.77 1.14-1.56 1.68-2.37zM388.9 459.54A123.1 123.1 0 1 1 512 582.64a123.1 123.1 0 0 1-123.1-123.1z"  horiz-adv-x="1024" />

    
    <glyph glyph-name="invite" unicode="&#58927;" d="M737.55 571.57V717.54H286.46v-145.97M768.64 571.57h-62.19V686.45h-388.9v-114.88h-62.19v146a31.09 31.09 0 0 0 31.1 31.09h451.09a31.09 31.09 0 0 0 31.09-31.09zM512 181.16a31 31 0 0 0-19.44 6.84L182 436.75a31.09 31.09 0 1 0 38.88 48.53L512 252.1l291.1 233.18a31.09 31.09 0 1 0 38.9-48.53L531.44 188a31 31 0 0 0-19.44-6.84zM822.54 19.36H201.46a31.1 31.1 0 0 0-31.1 31.09V461a31.1 31.1 0 0 0 31.1 31.1h621.08a31.1 31.1 0 0 0 31.1-31.1v-410.55a31.1 31.1 0 0 0-31.1-31.09z m-590 62.19h558.9V429.92H232.55z"  horiz-adv-x="1024" />

    
    <glyph glyph-name="mobile" unicode="&#58928;" d="M761.43-4H262.57a31.1 31.1 0 0 0-31.1 31.09v713.8a31.1 31.1 0 0 0 31.1 31.11h498.86a31.1 31.1 0 0 0 31.1-31.09v-713.8a31.1 31.1 0 0 0-31.1-31.11z m-467.77 62.21h436.68V709.79H293.66zM447.6 609h-94.18a20.73 20.73 0 0 0 0 41.46h94.18a20.73 20.73 0 0 0 0-41.46zM670.58 609h-27.27a20.73 20.73 0 1 0 0 41.46h27.27a20.73 20.73 0 0 0 0-41.46zM330.25 546.33h363.5v-148.7h-363.5zM330.25 358.8h363.5v-60.31h-363.5zM330.25 259.67h363.5v-60.31h-363.5zM330.25 160.53h363.5v-60.31h-363.5z"  horiz-adv-x="1024" />

    
    <glyph glyph-name="transferin" unicode="&#58929;" d="M852.77 6.95H171.23A36.27 36.27 0 0 0 135 43.22V724.78A36.27 36.27 0 0 0 171.23 761H547a36.28 36.28 0 1 0 0-72.55H207.5v-609h609V419a36.28 36.28 0 0 0 72.55 0v-375.78a36.27 36.27 0 0 0-36.28-36.27zM465.4 301.12A36.28 36.28 0 0 0 439.75 363l366.17 366.22a36.27 36.27 0 0 0 51.3-51.3L491.05 311.75a36.12 36.12 0 0 0-25.65-10.63zM385.94 493.46v-235.52h235.52l-135.7 99.82-99.82 135.7zM621.46 221.66H385.94a36.28 36.28 0 0 0-36.28 36.28V493.46a36.28 36.28 0 0 0 65.5 21.49l96.55-131.25L643 287.16a36.28 36.28 0 0 0-21.5-65.5z m-199.24 72.56h88.7l-46.66 34.31a36.5 36.5 0 0 0-7.72 7.73l-34.32 46.65z"  horiz-adv-x="1024" />

    
    <glyph glyph-name="warning_1" unicode="&#58930;" d="M815.75 7.29h-607.5a113.66 113.66 0 0 0-98.43 170.49l303.75 526.1a113.66 113.66 0 0 0 196.86 0l303.75-526.1a113.66 113.66 0 0 0-98.43-170.49zM476.4 667.61L172.65 141.5c-10.71-18.55-3.56-34.93 0-41.11s14.18-20.55 35.6-20.55h607.5c21.42 0 32 14.37 35.59 20.55s10.72 22.56 0 41.11L547.6 667.61c-10.71 18.54-28.47 20.55-35.6 20.55s-24.89-2-35.6-20.55zM512 453.12m-57.01 0a57.01 57.01 0 1 1 114.02 0 57.01 57.01 0 1 1-114.02 0ZM471.19 355.95m1.19 0l79.24 0q1.19 0 1.19-1.19l0-212.69q0-1.19-1.19-1.19l-79.24 0q-1.19 0-1.19 1.19l0 212.69q0 1.19 1.19 1.19Z"  horiz-adv-x="1024" />

    
    <glyph glyph-name="transferout" unicode="&#58931;" d="M852.77 6.95H171.23A36.27 36.27 0 0 0 135 43.22V724.78A36.27 36.27 0 0 0 171.23 761H375a36.28 36.28 0 0 0 0-72.55H207.5v-609h609V247a36.28 36.28 0 1 0 72.55 0v-203.78a36.27 36.27 0 0 0-36.28-36.27zM407.15 242.87a36.28 36.28 0 0 0-25.66 61.93L747.66 671A36.28 36.28 0 1 0 799 619.66L432.8 253.49a36.17 36.17 0 0 0-25.65-10.62zM852.78 481.06V724.77H609.06l140.42-103.29 103.3-140.42zM852.78 444.78a36.29 36.29 0 0 0-29.23 14.78l-100 136-136 100a36.28 36.28 0 0 0 21.5 65.5h243.72a36.28 36.28 0 0 0 36.28-36.28V481a36.28 36.28 0 0 0-36.27-36.27zM719.6 688.5l51.4-37.8a36.23 36.23 0 0 0 7.7-7.7l37.8-51.38V688.5z"  horiz-adv-x="1024" />

    


  </font>
</defs>
</svg>
